<?xml version="1.0" encoding="UTF-8" standalone="no"?>
<!-- Created with Inkscape (http://www.inkscape.org/) -->

<svg
   xmlns:dc="http://purl.org/dc/elements/1.1/"
   xmlns:cc="http://creativecommons.org/ns#"
   xmlns:rdf="http://www.w3.org/1999/02/22-rdf-syntax-ns#"
   xmlns:svg="http://www.w3.org/2000/svg"
   xmlns="http://www.w3.org/2000/svg"
   xmlns:xlink="http://www.w3.org/1999/xlink"
   xmlns:sodipodi="http://sodipodi.sourceforge.net/DTD/sodipodi-0.dtd"
   xmlns:inkscape="http://www.inkscape.org/namespaces/inkscape"
   width="360"
   height="480"
   id="svg2"
   version="1.1"
   inkscape:version="0.48.4 r9939"
   sodipodi:docname="0.svg">
  <defs
     id="defs4">
    <linearGradient
       id="linearGradient3763">
      <stop
         style="stop-color:#d5d5ff;stop-opacity:0.25098041;"
         offset="0"
         id="stop3765" />
      <stop
         style="stop-color:#d5d5ff;stop-opacity:1;"
         offset="1"
         id="stop3767" />
    </linearGradient>
    <radialGradient
       inkscape:collect="always"
       xlink:href="#linearGradient3763"
       id="radialGradient3769"
       cx="180"
       cy="240"
       fx="180"
       fy="240"
       r="120"
       gradientTransform="matrix(1,0,0,1.5,0,-120)"
       gradientUnits="userSpaceOnUse" />
  </defs>
  <sodipodi:namedview
     id="base"
     pagecolor="#ffffff"
     bordercolor="#666666"
     borderopacity="1.0"
     inkscape:pageopacity="0.0"
     inkscape:pageshadow="2"
     inkscape:zoom="1.7770833"
     inkscape:cx="72.239157"
     inkscape:cy="240"
     inkscape:document-units="px"
     inkscape:current-layer="layer3"
     showgrid="true"
     inkscape:window-width="1920"
     inkscape:window-height="1018"
     inkscape:window-x="-8"
     inkscape:window-y="-8"
     inkscape:window-maximized="1">
    <inkscape:grid
       type="xygrid"
       id="grid2985"
       empspacing="5"
       visible="true"
       enabled="true"
       snapvisiblegridlinesonly="true" />
  </sodipodi:namedview>
  <metadata
     id="metadata7">
    <rdf:RDF>
      <cc:Work
         rdf:about="">
        <dc:format>image/svg+xml</dc:format>
        <dc:type
           rdf:resource="http://purl.org/dc/dcmitype/StillImage" />
        <dc:title />
      </cc:Work>
    </rdf:RDF>
  </metadata>
  <g
     inkscape:label="Ebene 1"
     inkscape:groupmode="layer"
     id="layer1"
     transform="translate(0,-572.36218)"
     style="display:inline"
     sodipodi:insensitive="true">
    <path
       sodipodi:type="arc"
       style="opacity:0.5;fill:#d5d5ff;fill-opacity:1;stroke:none"
       id="path2987"
       sodipodi:cx="-227.5"
       sodipodi:cy="190"
       sodipodi:rx="22.5"
       sodipodi:ry="60"
       d="M -205,190 C -205,223.13708 -215.07359,250 -227.5,250 -239.92641,250 -250,223.13708 -250,190 -250,156.86292 -239.92641,130 -227.5,130 -215.07359,130 -205,156.86292 -205,190 z"
       transform="matrix(1.0666667,0,0,0.4,274.66667,736.36218)" />
    <path
       transform="matrix(1.0666667,0,0,0.4,570.66667,736.36218)"
       d="M -205,190 C -205,223.13708 -215.07359,250 -227.5,250 -239.92641,250 -250,223.13708 -250,190 -250,156.86292 -239.92641,130 -227.5,130 -215.07359,130 -205,156.86292 -205,190 z"
       sodipodi:ry="60"
       sodipodi:rx="22.5"
       sodipodi:cy="190"
       sodipodi:cx="-227.5"
       id="path2989"
       style="opacity:0.5;fill:#d5d5ff;fill-opacity:1;stroke:none"
       sodipodi:type="arc" />
    <path
       transform="matrix(1.0666667,0,0,0.4,422.66667,944.36218)"
       d="M -205,190 C -205,223.13708 -215.07359,250 -227.5,250 -239.92641,250 -250,223.13708 -250,190 -250,156.86292 -239.92641,130 -227.5,130 -215.07359,130 -205,156.86292 -205,190 z"
       sodipodi:ry="60"
       sodipodi:rx="22.5"
       sodipodi:cy="190"
       sodipodi:cx="-227.5"
       id="path2991"
       style="opacity:0.5;fill:#d5d5ff;fill-opacity:1;stroke:none"
       sodipodi:type="arc" />
    <path
       sodipodi:type="arc"
       style="opacity:0.5;fill:#d5d5ff;fill-opacity:1;stroke:none"
       id="path2993"
       sodipodi:cx="-227.5"
       sodipodi:cy="190"
       sodipodi:rx="22.5"
       sodipodi:ry="60"
       d="M -205,190 C -205,223.13708 -215.07359,250 -227.5,250 -239.92641,250 -250,223.13708 -250,190 -250,156.86292 -239.92641,130 -227.5,130 -215.07359,130 -205,156.86292 -205,190 z"
       transform="matrix(1.0666667,0,0,0.4,422.66667,528.36218)" />
  </g>
  <g
     inkscape:groupmode="layer"
     id="layer2"
     inkscape:label="Ebene 2"
     style="display:inline">
    <rect
       transform="translate(0,-572.36218)"
       style="opacity:0.75;fill:none;stroke:#d5d5ff;stroke-opacity:1"
       id="rect2995"
       width="247"
       height="367"
       x="56.5"
       y="628.86218" />
    <path
       transform="matrix(1.2444444,0,0,0.46666667,315.1111,151.33333)"
       d="M -205,190 A 22.5,60 0 1 1 -250,190 22.5,60 0 1 1 -205,190 z"
       sodipodi:ry="60"
       sodipodi:rx="22.5"
       sodipodi:cy="190"
       sodipodi:cx="-227.5"
       id="path2997"
       style="opacity:0.5;fill:#d5d5ff;fill-opacity:1;stroke:none"
       sodipodi:type="arc" />
    <path
       sodipodi:type="arc"
       style="opacity:0.5;fill:#d5d5ff;fill-opacity:1;stroke:none"
       id="path2999"
       sodipodi:cx="-227.5"
       sodipodi:cy="190"
       sodipodi:rx="22.5"
       sodipodi:ry="60"
       d="M -205,190 A 22.5,60 0 1 1 -250,190 22.5,60 0 1 1 -205,190 z"
       transform="matrix(1.2444444,0,0,0.46666667,611.11111,151.33333)" />
    <path
       sodipodi:type="arc"
       style="opacity:0.5;fill:#d5d5ff;fill-opacity:1;stroke:none"
       id="path3001"
       sodipodi:cx="-227.5"
       sodipodi:cy="190"
       sodipodi:rx="22.5"
       sodipodi:ry="60"
       d="M -205,190 A 22.5,60 0 1 1 -250,190 22.5,60 0 1 1 -205,190 z"
       transform="matrix(1.2444444,0,0,0.46666667,463.11112,359.33333)" />
    <path
       transform="matrix(1.2444444,0,0,0.46666667,463.11111,-56.666667)"
       d="M -205,190 A 22.5,60 0 1 1 -250,190 22.5,60 0 1 1 -205,190 z"
       sodipodi:ry="60"
       sodipodi:rx="22.5"
       sodipodi:cy="190"
       sodipodi:cx="-227.5"
       id="path3003"
       style="opacity:0.5;fill:#d5d5ff;fill-opacity:1;stroke:none"
       sodipodi:type="arc" />
  </g>
  <g
     inkscape:groupmode="layer"
     id="layer3"
     inkscape:label="Ebene 3"
     style="display:inline"
     sodipodi:insensitive="true">
    <rect
       style="opacity:0.5;fill:url(#radialGradient3769);fill-opacity:1;stroke:none"
       id="rect3012"
       width="240"
       height="360"
       x="60"
       y="60" />
    <path
       sodipodi:type="arc"
       style="opacity:0.5;fill:#d5d5ff;fill-opacity:1;stroke:none;display:inline"
       id="path3771"
       sodipodi:cx="-227.5"
       sodipodi:cy="190"
       sodipodi:rx="22.5"
       sodipodi:ry="60"
       d="M -205,190 A 22.5,60 0 1 1 -250,190 22.5,60 0 1 1 -205,190 z"
       transform="matrix(1.4222222,0,0,0.53333333,355.55556,138.66666)" />
    <path
       transform="matrix(1.4222222,0,0,0.53333333,651.55556,138.66666)"
       d="M -205,190 A 22.5,60 0 1 1 -250,190 22.5,60 0 1 1 -205,190 z"
       sodipodi:ry="60"
       sodipodi:rx="22.5"
       sodipodi:cy="190"
       sodipodi:cx="-227.5"
       id="path3773"
       style="opacity:0.5;fill:#d5d5ff;fill-opacity:1;stroke:none;display:inline"
       sodipodi:type="arc" />
    <path
       transform="matrix(1.4222222,0,0,0.53333333,503.55556,346.66666)"
       d="M -205,190 A 22.5,60 0 1 1 -250,190 22.5,60 0 1 1 -205,190 z"
       sodipodi:ry="60"
       sodipodi:rx="22.5"
       sodipodi:cy="190"
       sodipodi:cx="-227.5"
       id="path3775"
       style="opacity:0.5;fill:#d5d5ff;fill-opacity:1;stroke:none;display:inline"
       sodipodi:type="arc" />
    <path
       sodipodi:type="arc"
       style="opacity:0.5;fill:#d5d5ff;fill-opacity:1;stroke:none;display:inline"
       id="path3777"
       sodipodi:cx="-227.5"
       sodipodi:cy="190"
       sodipodi:rx="22.5"
       sodipodi:ry="60"
       d="M -205,190 A 22.5,60 0 1 1 -250,190 22.5,60 0 1 1 -205,190 z"
       transform="matrix(1.4222222,0,0,0.53333333,503.55556,-69.333334)" />
  </g>
</svg>
