<?xml version="1.0" encoding="UTF-8" standalone="no"?>
<!-- Created with Inkscape (http://www.inkscape.org/) -->

<svg
   xmlns:dc="http://purl.org/dc/elements/1.1/"
   xmlns:cc="http://creativecommons.org/ns#"
   xmlns:rdf="http://www.w3.org/1999/02/22-rdf-syntax-ns#"
   xmlns:svg="http://www.w3.org/2000/svg"
   xmlns="http://www.w3.org/2000/svg"
   xmlns:xlink="http://www.w3.org/1999/xlink"
   xmlns:sodipodi="http://sodipodi.sourceforge.net/DTD/sodipodi-0.dtd"
   xmlns:inkscape="http://www.inkscape.org/namespaces/inkscape"
   width="360"
   height="480"
   id="svg2"
   version="1.1"
   inkscape:version="0.48.4 r9939"
   sodipodi:docname="8.svg"
   inkscape:export-filename="E:\Projekt\NetBeans\Outtake\src\png\frames\8.png"
   inkscape:export-xdpi="90"
   inkscape:export-ydpi="90">
  <defs
     id="defs4">
    <linearGradient
       id="linearGradient3763">
      <stop
         style="stop-color:#d5d5ff;stop-opacity:0.25098041;"
         offset="0"
         id="stop3765" />
      <stop
         style="stop-color:#d5d5ff;stop-opacity:1;"
         offset="1"
         id="stop3767" />
    </linearGradient>
    <radialGradient
       inkscape:collect="always"
       xlink:href="#linearGradient3763"
       id="radialGradient3769"
       cx="180"
       cy="240"
       fx="180"
       fy="240"
       r="120"
       gradientTransform="matrix(1,0,0,1.5,0,-120)"
       gradientUnits="userSpaceOnUse" />
  </defs>
  <sodipodi:namedview
     id="base"
     pagecolor="#ffffff"
     bordercolor="#666666"
     borderopacity="1.0"
     inkscape:pageopacity="0.0"
     inkscape:pageshadow="2"
     inkscape:zoom="1.7770833"
     inkscape:cx="72.239157"
     inkscape:cy="240"
     inkscape:document-units="px"
     inkscape:current-layer="layer1"
     showgrid="true"
     inkscape:window-width="1920"
     inkscape:window-height="1018"
     inkscape:window-x="-8"
     inkscape:window-y="-8"
     inkscape:window-maximized="1">
    <inkscape:grid
       type="xygrid"
       id="grid2985"
       empspacing="5"
       visible="true"
       enabled="true"
       snapvisiblegridlinesonly="true" />
  </sodipodi:namedview>
  <metadata
     id="metadata7">
    <rdf:RDF>
      <cc:Work
         rdf:about="">
        <dc:format>image/svg+xml</dc:format>
        <dc:type
           rdf:resource="http://purl.org/dc/dcmitype/StillImage" />
        <dc:title></dc:title>
      </cc:Work>
    </rdf:RDF>
  </metadata>
  <g
     inkscape:label="Ebene 1"
     inkscape:groupmode="layer"
     id="layer1"
     transform="translate(0,-572.36218)"
     style="display:none"
     sodipodi:insensitive="true">
    <path
       sodipodi:type="arc"
       style="opacity:0.5;fill:#d5d5ff;fill-opacity:1;stroke:none"
       id="path2987"
       sodipodi:cx="-227.5"
       sodipodi:cy="190"
       sodipodi:rx="22.5"
       sodipodi:ry="60"
       d="M -205,190 A 22.5,60 0 1 1 -250,190 22.5,60 0 1 1 -205,190 z"
       transform="matrix(1.0666667,0,0,0.4,274.66667,736.36218)" />
    <path
       transform="matrix(1.0666667,0,0,0.4,570.66667,736.36218)"
       d="M -205,190 A 22.5,60 0 1 1 -250,190 22.5,60 0 1 1 -205,190 z"
       sodipodi:ry="60"
       sodipodi:rx="22.5"
       sodipodi:cy="190"
       sodipodi:cx="-227.5"
       id="path2989"
       style="opacity:0.5;fill:#d5d5ff;fill-opacity:1;stroke:none"
       sodipodi:type="arc" />
    <path
       transform="matrix(1.0666667,0,0,0.4,422.66667,944.36218)"
       d="M -205,190 A 22.5,60 0 1 1 -250,190 22.5,60 0 1 1 -205,190 z"
       sodipodi:ry="60"
       sodipodi:rx="22.5"
       sodipodi:cy="190"
       sodipodi:cx="-227.5"
       id="path2991"
       style="opacity:0.5;fill:#d5d5ff;fill-opacity:1;stroke:none"
       sodipodi:type="arc" />
    <path
       sodipodi:type="arc"
       style="opacity:0.5;fill:#d5d5ff;fill-opacity:1;stroke:none"
       id="path2993"
       sodipodi:cx="-227.5"
       sodipodi:cy="190"
       sodipodi:rx="22.5"
       sodipodi:ry="60"
       d="M -205,190 A 22.5,60 0 1 1 -250,190 22.5,60 0 1 1 -205,190 z"
       transform="matrix(1.0666667,0,0,0.4,422.66667,528.36218)" />
  </g>
  <g
     inkscape:groupmode="layer"
     id="layer2"
     inkscape:label="Ebene 2"
     style="display:inline"
     sodipodi:insensitive="true">
    <path
       style="opacity:0.75;fill:none;stroke:#d5d5ff;stroke-opacity:1"
       d="M 56.5,56.5 56.5,423.5 166.4375,423.5 C 170.456,421.27048 175.07878,420 180,420 184.92122,420 189.544,421.27048 193.5625,423.5 L 303.5,423.5 303.5,56.5 56.5,56.5 z"
       id="rect2995"
       inkscape:connector-curvature="0" />
  </g>
  <g
     inkscape:groupmode="layer"
     id="layer3"
     inkscape:label="Ebene 3"
     style="display:inline"
     sodipodi:insensitive="true">
    <path
       style="opacity:0.5;fill:url(#radialGradient3769);fill-opacity:1;stroke:none"
       d="M 60,60 60,420 164.53125,420 C 169.11755,417.46124 174.38674,416 180,416 185.61326,416 190.88245,417.46124 195.46875,420 L 300,420 300,60 60,60 z"
       id="rect3012"
       inkscape:connector-curvature="0" />
  </g>
</svg>
